<svg xmlns="http://www.w3.org/2000/svg" width="11.601" height="12.033" viewBox="0 0 11.601 12.033">
  <path id="Path_1" data-name="Path 1" d="M10.374-2.1a4.666,4.666,0,0,0,0-1.705l.905-.451a.642.642,0,0,0,.269-.781A6.3,6.3,0,0,0,10.417-6.81.643.643,0,0,0,9.6-6.952L8.822-6.5a4.664,4.664,0,0,0-1.474-.851v-.9a.645.645,0,0,0-.537-.634,6.125,6.125,0,0,0-2.041,0,.64.64,0,0,0-.526.631v.905A4.614,4.614,0,0,0,2.769-6.5l-.781-.451a.642.642,0,0,0-.814.142A6.305,6.305,0,0,0,.04-5.04a.64.64,0,0,0,.282.779l.894.454a4.653,4.653,0,0,0,0,1.7l-.894.451A.648.648,0,0,0,.04-.872,6.331,6.331,0,0,0,1.174.892a.643.643,0,0,0,.814.142L2.769.586a4.664,4.664,0,0,0,1.474.851v.9a.645.645,0,0,0,.537.634,6.04,6.04,0,0,0,2.038,0,.643.643,0,0,0,.529-.634v-.9A4.613,4.613,0,0,0,8.822.586l.781.451a.642.642,0,0,0,.814-.142A6.34,6.34,0,0,0,11.561-.872a.646.646,0,0,0-.282-.781Zm-3.158.567A2.008,2.008,0,0,1,4.377-4.377,2.008,2.008,0,0,1,7.216-1.538Z" transform="translate(0 8.973)" fill="#121213"/>
</svg>
